<svg width="16" height="15" viewBox="0 0 16 15" fill="none" xmlns="http://www.w3.org/2000/svg">
<path fill-rule="evenodd" clip-rule="evenodd" d="M4.99967 0.0253906C5.36786 0.0253906 5.66634 0.323867 5.66634 0.692057V1.0254L10.333 1.02541V0.692057C10.333 0.323868 10.6315 0.0253908 10.9997 0.0253906C11.3679 0.0253905 11.6663 0.323867 11.6663 0.692057V1.02541L12.4997 1.02541C13.9724 1.02542 15.1663 2.21932 15.1663 3.69208V11.6921C15.1663 13.1648 13.9724 14.3587 12.4997 14.3587L3.49967 14.3587C2.02691 14.3587 0.833008 13.1648 0.833008 11.6921L0.833008 5.19219L0.833008 3.69206C0.833008 2.2193 2.02692 1.02539 3.49968 1.02539L4.33301 1.0254V0.692057C4.33301 0.323867 4.63148 0.0253906 4.99967 0.0253906ZM4.33301 2.35873L3.49968 2.35873C2.7633 2.35873 2.16634 2.95568 2.16634 3.69206V4.52539H13.833V3.69208C13.833 2.9557 13.2361 2.35875 12.4997 2.35875L11.6663 2.35874V2.69206C11.6663 3.06025 11.3679 3.35872 10.9997 3.35872C10.6315 3.35872 10.333 3.06025 10.333 2.69206V2.35874L5.66634 2.35873V2.69206C5.66634 3.06025 5.36786 3.35872 4.99967 3.35872C4.63148 3.35872 4.33301 3.06025 4.33301 2.69206V2.35873ZM13.833 5.85872H2.16634L2.16634 11.6921C2.16634 12.4284 2.76329 13.0254 3.49967 13.0254L12.4997 13.0254C13.2361 13.0254 13.833 12.4284 13.833 11.6921V5.85872Z" fill="#787A80"/>
</svg>
