<svg width="16" height="17" viewBox="0 0 16 17" fill="none" xmlns="http://www.w3.org/2000/svg">
<path d="M8.00033 15.8092C12.0437 15.8092 15.3337 12.5196 15.3337 8.47591C15.3337 7.77797 15.2362 7.09017 15.0433 6.43146C14.9483 6.10756 14.6101 5.92151 14.2853 6.01655C13.961 6.11129 13.7756 6.45071 13.8703 6.77462C14.0301 7.32187 14.1114 7.89449 14.1114 8.47591C14.1114 11.8455 11.3699 14.587 8.00033 14.587C4.63071 14.587 1.88921 11.8455 1.88921 8.47591C1.88921 5.1063 4.63071 2.3648 8.00033 2.3648C9.22493 2.3648 10.4031 2.72287 11.4075 3.40008C11.6871 3.58881 12.0673 3.51466 12.2557 3.23507C12.4443 2.95517 12.3708 2.57532 12.0909 2.38673C10.8839 1.57286 9.46947 1.14258 8.00033 1.14258C3.95694 1.14258 0.666992 4.43222 0.666992 8.47591C0.666992 12.5196 3.95694 15.8092 8.00033 15.8092Z" fill="#FF3F3A"/>
<path d="M14.8622 2.00444L8.0002 8.86609L5.80489 6.6711C5.54447 6.41085 5.1226 6.41085 4.86218 6.6711C4.60193 6.93152 4.60193 7.35339 4.86218 7.61381L7.52885 10.2805C7.65922 10.4108 7.82947 10.4758 8.0002 10.4758C8.17094 10.4758 8.34119 10.4108 8.47156 10.2805L15.8049 2.94714C16.0651 2.68673 16.0651 2.26485 15.8049 2.00444C15.5445 1.74418 15.1226 1.74418 14.8622 2.00444Z" fill="#FF3F3A"/>
</svg>
