<svg width="16" height="17" viewBox="0 0 16 17" fill="none" xmlns="http://www.w3.org/2000/svg">
<path d="M8.66699 4.52604C8.66699 4.15785 8.36851 3.85937 8.00033 3.85937C7.63213 3.85937 7.33366 4.15785 7.33366 4.52604V8.19271C7.33366 8.36952 7.4039 8.53909 7.52892 8.66411L9.52892 10.6641C9.78927 10.9245 10.2114 10.9245 10.4717 10.6641C10.7321 10.4038 10.7321 9.98165 10.4717 9.7213L8.66699 7.91657V4.52604Z" fill="#787A80"/>
<path fill-rule="evenodd" clip-rule="evenodd" d="M8.00033 0.859375C3.95024 0.859375 0.666992 4.14262 0.666992 8.19271C0.666992 12.2428 3.95024 15.526 8.00033 15.526C12.0504 15.526 15.3337 12.2428 15.3337 8.19271C15.3337 4.14262 12.0504 0.859375 8.00033 0.859375ZM2.00033 8.19271C2.00033 4.879 4.68662 2.19271 8.00033 2.19271C11.314 2.19271 14.0003 4.879 14.0003 8.19271C14.0003 11.5064 11.314 14.1927 8.00033 14.1927C4.68662 14.1927 2.00033 11.5064 2.00033 8.19271Z" fill="#787A80"/>
</svg>
